<svg xmlns="http://www.w3.org/2000/svg" viewBox="0 0 300 352.74"><defs><style>.cls-1{fill:#b0bab3;}.cls-1,.cls-2,.cls-3{fill-rule:evenodd;}.cls-2{fill:#354948;}.cls-3{fill:#a8bcb9;}</style></defs><title>How_We_Help_Graphic_1</title><g id="Layer_2" data-name="Layer 2"><g id="Features"><path class="cls-1" d="M155.08,352.74,300,262.35V100l-144.92,90.4V352.74Zm29.7-51.8,85.51-53.33V151.83l-85.51,53.34v95.77Z"/><path class="cls-2" d="M5.33,90.39,150.26,0,295.18,90.39l-144.92,90.4L5.33,90.39Zm56.08,0L150.26,35,239.1,90.39l-88.84,55.42L61.41,90.39Z"/><path class="cls-3" d="M145.3,190.19V352.51L0,262.35V100l145.3,90.16ZM116,204.74V301.6L29.3,247.8V151L116,204.74Z"/><path class="cls-2" d="M146.43,90.91c0,1.23.9,2,2.7,2.2V88.67a3.22,3.22,0,0,0-1.92.58,1.91,1.91,0,0,0-.78,1.66Z"/><path class="cls-2" d="M150.92,96.54v5.06a3.16,3.16,0,0,0,2.08-.73,2.31,2.31,0,0,0,.84-1.86c0-1.29-1-2.11-2.92-2.47Z"/><path class="cls-2" d="M155.62,70.06a.78.78,0,0,1,.21,0,64.41,64.41,0,0,0,3.56-5.65c2.72-4.72-4.06-4.7-9.12-4.7s-11.64-.12-9.22,4.7a31.46,31.46,0,0,0,3.57,5.72,1,1,0,0,1,.39-.11Z"/><path class="cls-2" d="M155.25,102.31a6.88,6.88,0,0,1-4.33,1.71v2.44h-1.79V104c-3.28-.28-5.38-1.86-6.29-4.76l2.84-.66a3.66,3.66,0,0,0,3.45,3V96.38q-3.49-.81-4.56-2a4.35,4.35,0,0,1-1.06-3c0-3,1.88-4.68,5.62-5.14v-1.9h1.79v1.9c2.74.35,4.47,1.71,5.19,4.06l-2.68.56a2.85,2.85,0,0,0-2.51-2.19v4.61a34.16,34.16,0,0,1,3.48,1.14A3.83,3.83,0,0,1,156,96a5,5,0,0,1,.72,2.7,4.85,4.85,0,0,1-1.49,3.64Zm1.63-29c-.19.89-.69,1.52-1.27,1.52H145c-.67,0-1.22-.82-1.35-1.91-7.84,4.76-14.23,16.93-14.23,26.52,0,12.19,9.32,15.57,20.82,15.57s20.82-3.38,20.82-15.57c0-9.34-6.88-21.13-14.2-26.13Z"/><path class="cls-3" d="M71.91,211A3.05,3.05,0,1,1,75,208a3.06,3.06,0,0,1-3,3.05ZM78,208a6.08,6.08,0,1,0-8.1,5.72,5.88,5.88,0,0,0,4.05,0A6.07,6.07,0,0,0,78,208Z"/><polygon class="cls-3" points="55.04 228.59 52.57 231.65 50.09 234.72 54.07 235.3 58.05 235.87 56.55 232.23 55.04 228.59 55.04 228.59"/><polygon class="cls-3" points="93.72 234.72 91.25 231.65 88.77 228.59 87.27 232.23 85.76 235.87 89.74 235.3 93.72 234.72 93.72 234.72"/><path class="cls-3" d="M92.11,238.29a7.09,7.09,0,0,0-.5-2l-1.7.24-1.68.25a4.88,4.88,0,0,1-2.07,2.56c-2.24,1.41-9.93,2.77-10.82-.07-.53-1.73-.88-11.22-1.16-19H79a1.47,1.47,0,0,0,1.43-1.5v0A1.46,1.46,0,0,0,79,217.24H74.07c0-.81-.06-1.59-.09-2.31a7.1,7.1,0,0,1-4.15,0c0,.72-.06,1.5-.09,2.32H64.81a1.47,1.47,0,0,0-1.43,1.5v0a1.47,1.47,0,0,0,1.43,1.5h4.82c-.28,7.75-.62,17.24-1.16,19-.89,2.84-8.57,1.48-10.81.07a4.9,4.9,0,0,1-2.08-2.56l-1.68-.25-1.69-.24a7.11,7.11,0,0,0-.51,2c-.34,3.82,2.87,5.73,5.94,7a22.09,22.09,0,0,0,2.65.85c4.36,1.23,8,1.94,10.55,4.93a1.4,1.4,0,0,0,2.14,0c2.52-3,6.18-3.7,10.55-4.93a20.94,20.94,0,0,0,2.65-.85c3.07-1.25,6.27-3.16,5.93-7Z"/><path class="cls-1" d="M229.52,204.5a.66.66,0,0,1-.72.6h0a.66.66,0,0,1-.72-.6v-4.31a.67.67,0,0,1,.72-.6h0a.67.67,0,0,1,.72.6v4.31Z"/><path class="cls-1" d="M214.47,211.13a.68.68,0,0,1,0,1h0a.68.68,0,0,1-.93.13l-3.2-2.88a.68.68,0,0,1,0-1h0a.68.68,0,0,1,.93-.13l3.2,2.88Z"/><path class="cls-1" d="M209.33,226.76a.66.66,0,0,1,.67.65h0a.68.68,0,0,1-.52.79l-4.29.45a.67.67,0,0,1-.67-.66h0a.68.68,0,0,1,.52-.78l4.29-.45Z"/><path class="cls-1" d="M249.55,226.92a.67.67,0,0,1-.52-.78h0a.67.67,0,0,1,.67-.66l4.29.45a.68.68,0,0,1,.52.78h0a.66.66,0,0,1-.67.66l-4.29-.45Z"/><path class="cls-1" d="M244.53,211.25a.66.66,0,0,1-.93-.13h0a.67.67,0,0,1,0-.94l3.2-2.89a.67.67,0,0,1,.93.14h0a.67.67,0,0,1,0,.94l-3.2,2.88Z"/><path class="cls-1" d="M233.62,244.08a1.4,1.4,0,0,1-.55,1.13,1.09,1.09,0,0,1-.64.21H225a1,1,0,0,1-.63-.21,1.38,1.38,0,0,1-.55-1.13v-4.16h9.76v4.16Zm-10.61-29a9.58,9.58,0,0,0-.43,15,.71.71,0,0,1,.12.94h0a.72.72,0,0,1-1.05.14,11,11,0,0,1,.5-17.26.72.72,0,0,1,1,.16h0a.71.71,0,0,1-.16,1Zm21.1,7.68a15.37,15.37,0,1,0-21.7,14v7.33a2.73,2.73,0,0,0,2.2,2.74,6,6,0,0,0,.38,1.1c.68,1.49,1.8,2.36,2.71,2.36h2.08a3.52,3.52,0,0,0,2.7-2.36,6,6,0,0,0,.38-1.1,2.73,2.73,0,0,0,2.2-2.74v-7.33a15.37,15.37,0,0,0,9.05-14Z"/></g></g></svg>