<svg xmlns="http://www.w3.org/2000/svg" viewBox="0 0 616.36 724.72"><defs><style>.cls-1{fill:#b0bab3;}.cls-1,.cls-2,.cls-3{fill-rule:evenodd;}.cls-2{fill:#354948;}.cls-3{fill:#a8bcb9;}</style></defs><title>How_We_Help_Graphic</title><g id="Layer_2" data-name="Layer 2"><g id="Features"><path class="cls-1" d="M318.61,724.72,616.36,539V205.52L318.61,391.24V724.72Zm61-106.43L555.33,508.72V312L379.65,421.53V618.29Z"/><path class="cls-2" d="M11,185.72,308.71,0,606.46,185.72,308.71,371.44,11,185.72Zm115.22,0L308.71,71.87,491.24,185.72,308.71,299.57,126.18,185.72Z"/><path class="cls-3" d="M298.52,390.76V724.24L0,539V205.52L298.52,390.76Zm-60.19,29.89v199L60.2,509.11v-199L238.33,420.65Z"/><path class="cls-2" d="M300.85,186.77c0,2.54,1.85,4,5.54,4.53v-9.12a6.7,6.7,0,0,0-3.95,1.18,4,4,0,0,0-1.59,3.41Z"/><path class="cls-2" d="M310.06,198.34v10.4a6.55,6.55,0,0,0,4.28-1.49,4.79,4.79,0,0,0,1.72-3.83q0-4-6-5.08Z"/><path class="cls-2" d="M319.72,144a1.63,1.63,0,0,1,.44.08,132.87,132.87,0,0,0,7.3-11.63c5.6-9.69-8.33-9.64-18.73-9.64s-23.91-.26-18.94,9.64a65,65,0,0,0,7.34,11.77,1.79,1.79,0,0,1,.81-.22Z"/><path class="cls-2" d="M319,210.2q-3.08,3-8.91,3.51v5h-3.67v-5q-10.09-.84-12.93-9.77l5.85-1.37q1.57,5.75,7.08,6.17V198q-7.18-1.65-9.37-4.2a9,9,0,0,1-2.17-6.06c0-6.11,3.85-9.62,11.54-10.57v-3.91h3.67v3.91q8.44,1.09,10.67,8.34l-5.51,1.16q-1.41-4.17-5.16-4.5v9.48a66.38,66.38,0,0,1,7.17,2.33,7.87,7.87,0,0,1,3.33,3.18,10.26,10.26,0,0,1,1.48,5.54A10,10,0,0,1,319,210.2Zm3.35-59.64c-.4,1.82-1.41,3.12-2.61,3.12H297.94c-1.37,0-2.5-1.68-2.76-3.92-16.11,9.77-29.25,34.78-29.25,54.49,0,25,19.15,32,42.77,32s42.78-6.94,42.78-32c0-19.2-14.13-43.42-29.16-53.69Z"/><path class="cls-3" d="M147.73,433.51a6.28,6.28,0,1,1,6.28-6.27,6.29,6.29,0,0,1-6.28,6.27Zm12.49-6.27A12.51,12.51,0,1,0,151.89,439a12.5,12.5,0,0,0,8.33-11.76Z"/><polygon class="cls-3" points="113.09 469.64 108.01 475.94 102.92 482.25 111.1 483.43 119.27 484.61 116.18 477.12 113.09 469.64 113.09 469.64"/><polygon class="cls-3" points="192.55 482.25 187.47 475.94 182.38 469.64 179.29 477.12 176.19 484.61 184.38 483.43 192.55 482.25 192.55 482.25"/><path class="cls-3" d="M189.24,489.57a14.08,14.08,0,0,0-1-4.18l-3.49.49-3.46.5a9.84,9.84,0,0,1-4.25,5.26c-4.6,2.9-20.39,5.69-22.21-.13-1.11-3.56-1.82-23.05-2.4-39h9.92a3,3,0,0,0,2.94-3.07v-.06a3,3,0,0,0-2.94-3.07H152.18c-.06-1.67-.12-3.27-.18-4.75a14.28,14.28,0,0,1-8.52,0c-.07,1.48-.13,3.08-.19,4.76H133.15a3,3,0,0,0-2.94,3.08v.06a3,3,0,0,0,2.93,3.07h9.93c-.58,15.94-1.3,35.43-2.4,39-1.82,5.82-17.61,3-22.21.13a9.86,9.86,0,0,1-4.26-5.26l-3.46-.5-3.48-.49a14.08,14.08,0,0,0-1,4.18c-.72,7.85,5.88,11.77,12.19,14.35a48.71,48.71,0,0,0,5.45,1.75c9,2.51,16.48,4,21.66,10.12a2.91,2.91,0,0,0,4.41,0c5.18-6.13,12.69-7.61,21.67-10.12a50.07,50.07,0,0,0,5.45-1.75c6.3-2.58,12.89-6.5,12.18-14.35Z"/><path class="cls-1" d="M471.56,420.16a1.37,1.37,0,0,1-1.47,1.23h0a1.37,1.37,0,0,1-1.49-1.23V411.3a1.38,1.38,0,0,1,1.49-1.24h0a1.37,1.37,0,0,1,1.47,1.24v8.86Z"/><path class="cls-1" d="M440.64,433.78a1.4,1.4,0,0,1-.08,1.94h0a1.38,1.38,0,0,1-1.91.27l-6.58-5.92a1.39,1.39,0,0,1,.07-1.94h0a1.39,1.39,0,0,1,1.92-.28l6.58,5.93Z"/><path class="cls-1" d="M430.06,465.89a1.38,1.38,0,0,1,1.4,1.34h0a1.39,1.39,0,0,1-1.08,1.61l-8.8.92a1.37,1.37,0,0,1-1.39-1.34h0a1.37,1.37,0,0,1,1.07-1.61l8.8-.92Z"/><path class="cls-1" d="M512.71,466.21a1.37,1.37,0,0,1-1.08-1.6h0a1.4,1.4,0,0,1,1.39-1.36l8.8.93a1.38,1.38,0,0,1,1.08,1.6h0a1.39,1.39,0,0,1-1.38,1.36l-8.81-.93Z"/><path class="cls-1" d="M502.39,434a1.38,1.38,0,0,1-1.92-.27h0a1.38,1.38,0,0,1-.07-1.93l6.58-5.93a1.38,1.38,0,0,1,1.91.28h0a1.36,1.36,0,0,1,.08,1.93L502.39,434Z"/><path class="cls-1" d="M480,501.47a2.85,2.85,0,0,1-1.13,2.32,2.27,2.27,0,0,1-1.31.44H462.36a2.2,2.2,0,0,1-1.31-.44,2.84,2.84,0,0,1-1.13-2.32v-8.54H480v8.54Zm-21.8-59.61a19.66,19.66,0,0,0-.88,30.86,1.45,1.45,0,0,1,.24,1.93l0,0a1.47,1.47,0,0,1-2.16.29,22.62,22.62,0,0,1,1-35.47,1.48,1.48,0,0,1,2.1.33v0a1.47,1.47,0,0,1-.32,2Zm43.34,15.78A31.57,31.57,0,1,0,457,486.41v15.06a5.61,5.61,0,0,0,4.52,5.64,12.88,12.88,0,0,0,.79,2.26c1.38,3.06,3.69,4.83,5.55,4.83h4.27c1.86,0,4.18-1.77,5.56-4.83a12.85,12.85,0,0,0,.78-2.26,5.63,5.63,0,0,0,4.53-5.64V486.41a31.57,31.57,0,0,0,18.57-28.77Z"/></g></g></svg>